HIERARCHY
ROOT Hips
{
    OFFSET 0.000000 0.000000 0.000000
    CHANNELS 6 Xposition Yposition Zposition Zrotation Yrotation Xrotation
    JOINT Chest
    {
        OFFSET 0.000000 1.634758 -0.000000
        CHANNELS 3 Zrotation Yrotation Xrotation
        JOINT Chest2
        {
            OFFSET 0.000000 2.197341 0.000000
            CHANNELS 3 Zrotation Yrotation Xrotation
            JOINT Neck
            {
                OFFSET 0.000000 0.961544 0.000000
                CHANNELS 3 Zrotation Yrotation Xrotation
                JOINT Head
                {
                    OFFSET 0.000000 0.632542 -0.032565
                    CHANNELS 3 Zrotation Yrotation Xrotation
                    End Site
                    {
                        OFFSET -0.000001 0.439502 2.922845
                    }
                }
            }
            JOINT LeftCollar
            {
                OFFSET 0.167536 0.778237 -0.168280
                CHANNELS 3 Zrotation Yrotation Xrotation
                JOINT LeftShoulder
                {
                    OFFSET 0.831514 -0.002900 0.006458
                    CHANNELS 3 Zrotation Yrotation Xrotation
                    JOINT LeftElbow
                    {
                        OFFSET 2.272872 -0.026639 0.059314
                        CHANNELS 3 Zrotation Yrotation Xrotation
                        JOINT LeftWrist
                        {
                            OFFSET 2.081982 -0.024402 0.054333
                            CHANNELS 3 Zrotation Yrotation Xrotation
                            JOINT LeftHandThumb1
                            {
                                OFFSET 0.218903 -0.128645 0.283837
                                CHANNELS 3 Zrotation Yrotation Xrotation
                                JOINT LeftHandThumb2
                                {
                                    OFFSET 0.137157 -0.025101 0.077902
                                    CHANNELS 3 Zrotation Yrotation Xrotation
                                    JOINT LeftHandThumb3
                                    {
                                        OFFSET 0.144681 -0.110835 0.017953
                                        CHANNELS 3 Zrotation Yrotation Xrotation
                                        End Site
                                        {
                                            OFFSET 0.238636 -0.118145 0.030515
                                        }
                                    }
                                }
                            }
                            JOINT LeftHandFore1
                            {
                                OFFSET 0.767340 -0.016076 0.196678
                                CHANNELS 3 Zrotation Yrotation Xrotation
                                JOINT LeftHandFore2
                                {
                                    OFFSET 0.189101 -0.105877 0.005106
                                    CHANNELS 3 Zrotation Yrotation Xrotation
                                    JOINT LeftHandFore3
                                    {
                                        OFFSET 0.067158 -0.110431 0.007595
                                        CHANNELS 3 Zrotation Yrotation Xrotation
                                        End Site
                                        {
                                            OFFSET 0.009171 -0.192623 0.013384
                                        }
                                    }
                                }
                            }
                            JOINT LeftHandMiddle1
                            {
                                OFFSET 0.709887 -0.008320 0.018526
                                CHANNELS 3 Zrotation Yrotation Xrotation
                                JOINT LeftHandMiddle2
                                {
                                    OFFSET 0.207834 -0.128723 0.017294
                                    CHANNELS 3 Zrotation Yrotation Xrotation
                                    JOINT LeftHandMiddle3
                                    {
                                        OFFSET 0.059338 -0.133318 0.009414
                                        CHANNELS 3 Zrotation Yrotation Xrotation
                                        End Site
                                        {
                                            OFFSET -0.041971 -0.231904 0.009454
                                        }
                                    }
                                }
                            }
                            JOINT LeftHandRing1
                            {
                                OFFSET 0.743817 -0.005823 -0.153668
                                CHANNELS 3 Zrotation Yrotation Xrotation
                                JOINT LeftHandRing2
                                {
                                    OFFSET 0.295822 -0.188774 0.039837
                                    CHANNELS 3 Zrotation Yrotation Xrotation
                                    JOINT LeftHandRing3
                                    {
                                        OFFSET 0.026033 -0.133434 0.011093
                                        CHANNELS 3 Zrotation Yrotation Xrotation
                                        End Site
                                        {
                                            OFFSET -0.040571 -0.113021 -0.000132
                                        }
                                    }
                                }
                            }
                            JOINT LeftHandLittle1
                            {
                                OFFSET 0.689408 -0.053302 -0.308304
                                CHANNELS 3 Zrotation Yrotation Xrotation
                                JOINT LeftHandLittle2
                                {
                                    OFFSET 0.181859 -0.065948 0.025143
                                    CHANNELS 3 Zrotation Yrotation Xrotation
                                    JOINT LeftHandLittle3
                                    {
                                        OFFSET 0.051388 -0.107914 0.014493
                                        CHANNELS 3 Zrotation Yrotation Xrotation
                                        End Site
                                        {
                                            OFFSET -0.075941 -0.173772 0.018028
                                        }
                                    }
                                }
                            }
                        }
                    }
                }
            }
            JOINT RightCollar
            {
                OFFSET -0.167536 0.778237 -0.168280
                CHANNELS 3 Zrotation Yrotation Xrotation
                JOINT RightShoulder
                {
                    OFFSET -0.831514 -0.002900 0.006457
                    CHANNELS 3 Zrotation Yrotation Xrotation
                    JOINT RightElbow
                    {
                        OFFSET -2.272872 -0.026639 0.059313
                        CHANNELS 3 Zrotation Yrotation Xrotation
                        JOINT RightWrist
                        {
                            OFFSET -2.081982 -0.024402 0.054331
                            CHANNELS 3 Zrotation Yrotation Xrotation
                            JOINT RightHandThumb1
                            {
                                OFFSET -0.218911 -0.128571 0.283837
                                CHANNELS 3 Zrotation Yrotation Xrotation
                                JOINT RightHandThumb2
                                {
                                    OFFSET -0.137157 -0.025101 0.077902
                                    CHANNELS 3 Zrotation Yrotation Xrotation
                                    JOINT RightHandThumb3
                                    {
                                        OFFSET -0.168900 -0.063919 0.030439
                                        CHANNELS 3 Zrotation Yrotation Xrotation
                                        End Site
                                        {
                                            OFFSET -0.226305 -0.114235 0.087022
                                        }
                                    }
                                }
                            }
                            JOINT RightHandFore1
                            {
                                OFFSET -0.767344 -0.015991 0.196679
                                CHANNELS 3 Zrotation Yrotation Xrotation
                                JOINT RightHandFore2
                                {
                                    OFFSET -0.162928 -0.142859 -0.006501
                                    CHANNELS 3 Zrotation Yrotation Xrotation
                                    JOINT RightHandFore3
                                    {
                                        OFFSET -0.030688 -0.125646 -0.005781
                                        CHANNELS 3 Zrotation Yrotation Xrotation
                                        End Site
                                        {
                                            OFFSET 0.067217 -0.181085 -0.007556
                                        }
                                    }
                                }
                            }
                            JOINT RightHandMiddle1
                            {
                                OFFSET -0.709887 -0.008302 0.018525
                                CHANNELS 3 Zrotation Yrotation Xrotation
                                JOINT RightHandMiddle2
                                {
                                    OFFSET -0.182776 -0.163136 0.006433
                                    CHANNELS 3 Zrotation Yrotation Xrotation
                                    JOINT RightHandMiddle3
                                    {
                                        OFFSET -0.022032 -0.144516 -0.003740
                                        CHANNELS 3 Zrotation Yrotation Xrotation
                                        End Site
                                        {
                                            OFFSET 0.121365 -0.201546 -0.016732
                                        }
                                    }
                                }
                            }
                            JOINT RightHandRing1
                            {
                                OFFSET -0.743819 -0.005785 -0.153669
                                CHANNELS 3 Zrotation Yrotation Xrotation
                                JOINT RightHandRing2
                                {
                                    OFFSET -0.276969 -0.217858 0.023642
                                    CHANNELS 3 Zrotation Yrotation Xrotation
                                    JOINT RightHandRing3
                                    {
                                        OFFSET -0.003953 -0.134353 -0.023209
                                        CHANNELS 3 Zrotation Yrotation Xrotation
                                        End Site
                                        {
                                            OFFSET 0.067864 -0.094910 -0.028405
                                        }
                                    }
                                }
                            }
                            JOINT RightHandLittle1
                            {
                                OFFSET -0.689403 -0.053298 -0.308303
                                CHANNELS 3 Zrotation Yrotation Xrotation
                                JOINT RightHandLittle2
                                {
                                    OFFSET -0.174517 -0.086747 0.008599
                                    CHANNELS 3 Zrotation Yrotation Xrotation
                                    JOINT RightHandLittle3
                                    {
                                        OFFSET -0.061740 -0.102512 -0.013226
                                        CHANNELS 3 Zrotation Yrotation Xrotation
                                        End Site
                                        {
                                            OFFSET 0.008797 -0.181032 -0.058638
                                        }
                                    }
                                }
                            }
                        }
                    }
                }
            }
        }
    }
    JOINT LeftHip
    {
        OFFSET 0.685143 0.673822 -0.044491
        CHANNELS 3 Zrotation Yrotation Xrotation
        JOINT LeftKnee
        {
            OFFSET 0.085364 -3.750208 0.017676
            CHANNELS 3 Zrotation Yrotation Xrotation
            JOINT LeftAnkle
            {
                OFFSET 0.094583 -4.155206 0.019585
                CHANNELS 3 Zrotation Yrotation Xrotation
                JOINT LeftToe
                {
                    OFFSET -0.000000 -0.395925 0.621478
                    CHANNELS 3 Zrotation Yrotation Xrotation
                    End Site
                    {
                        OFFSET -0.000000 -0.077878 0.321152
                    }
                }
            }
        }
    }
    JOINT RightHip
    {
        OFFSET -0.685143 0.673822 -0.044492
        CHANNELS 3 Zrotation Yrotation Xrotation
        JOINT RightKnee
        {
            OFFSET -0.085364 -3.750208 0.017677
            CHANNELS 3 Zrotation Yrotation Xrotation
            JOINT RightAnkle
            {
                OFFSET -0.094583 -4.155206 0.019585
                CHANNELS 3 Zrotation Yrotation Xrotation
                JOINT RightToe
                {
                    OFFSET -0.000000 -0.395925 0.621478
                    CHANNELS 3 Zrotation Yrotation Xrotation
                    End Site
                    {
                        OFFSET -0.000000 -0.077878 0.321152
                    }
                }
            }
        }
    }
}
MOTION
Frames: 4
Frame Time: 0.033333
-0.011548 8.256481 -0.483270 180.000000 -0.000011 180.000000 0.636594 0.141978 -1.004939 0.001397 -0.022037 -3.645257 -3.892135 1.021179 7.726278 -0.099183 1.925923 16.885269 -13.625935 -6.983739 -0.029784 -65.492699 -7.798031 28.713692 0.276208 -45.106228 -0.672414 -6.054118 -7.076448 29.105932 -0.000009 0.000002 -0.000002 0.000005 -0.000006 -0.000003 0.000000 -0.000001 0.000004 0.000000 0.000000 -0.000003 -0.000002 -0.000000 0.000006 -0.000002 -0.000001 -0.000003 0.000000 -0.000005 -0.000002 -0.000002 0.000004 0.000001 0.000000 -0.000008 -0.000000 0.000000 -0.000001 -0.000001 -0.000003 -0.000003 0.000004 -0.000003 0.000005 -0.000000 0.000002 -0.000003 0.000001 -0.000002 0.000001 0.000004 -0.000002 -0.000000 -0.000004 13.467701 8.182858 -0.023468 69.262665 13.742304 23.717743 -0.176956 37.928970 -0.522273 19.746164 10.978943 38.037815 -0.000002 0.000002 0.000002 -0.000002 -0.000002 0.000003 0.000005 -0.000003 -0.000003 -0.000003 -0.000005 0.000002 0.000000 0.000004 0.000002 0.000003 -0.000002 -0.000003 0.000005 -0.000003 0.000001 0.000002 0.000003 -0.000001 -0.000002 0.000004 0.000003 0.000007 -0.000004 0.000001 -0.000005 0.000002 -0.000002 0.000000 -0.000002 0.000001 0.000003 0.000003 -0.000001 0.000002 0.000004 0.000000 0.000003 -0.000000 0.000001 -0.655011 3.657828 -3.842244 0.037121 0.308918 13.701712 -17.305624 5.835436 -15.020734 -0.242892 -2.165474 -7.229409 0.674247 -3.230296 -3.771407 -0.036451 -0.306211 13.579288 10.715576 -3.742195 -14.701308 0.151996 1.221897 -6.539273
-0.011548 8.256481 -0.483270 180.000000 -0.000011 180.000000 0.636101 0.134753 -1.004085 0.004494 -0.021144 -3.647136 -3.891415 1.023410 7.734310 -0.099471 1.931524 16.899813 -13.625997 -6.983672 -0.029623 -65.491913 -7.793354 28.711636 0.276269 -45.110195 -0.672509 -6.053439 -7.076564 29.104870 -0.000002 0.000006 0.000004 0.000000 0.000005 0.000002 0.000005 -0.000000 -0.000002 0.000014 0.000001 0.000007 -0.000007 -0.000002 -0.000000 -0.000002 0.000001 0.000002 0.000015 0.000001 0.000008 -0.000002 0.000005 0.000002 0.000003 -0.000002 -0.000001 0.000020 0.000010 0.000006 -0.000002 -0.000004 -0.000003 -0.000003 -0.000004 -0.000002 0.000022 0.000008 0.000006 -0.000005 0.000001 0.000002 0.000000 0.000000 -0.000000 13.467833 8.182259 -0.023638 69.264969 13.743240 23.718882 -0.176940 37.927425 -0.522242 19.746162 10.978596 38.037342 0.000005 0.000010 -0.000003 -0.000003 0.000001 0.000000 0.000005 0.000002 -0.000002 -0.000005 0.000006 0.000003 -0.000003 -0.000000 0.000006 0.000003 0.000001 -0.000003 0.000003 0.000005 -0.000003 0.000003 0.000003 0.000001 0.000000 -0.000000 0.000003 -0.000009 0.000005 0.000001 0.000000 0.000002 0.000002 0.000003 0.000003 0.000006 0.000003 0.000014 0.000001 -0.000002 -0.000003 -0.000001 0.000000 0.000001 0.000001 -0.655014 3.657543 -3.842698 0.037125 0.308937 13.702591 -17.305435 5.835454 -15.021194 -0.242891 -2.165336 -7.229065 0.674262 -3.230021 -3.771402 -0.036451 -0.306211 13.579288 10.716331 -3.742843 -14.701197 0.152007 1.222047 -6.539649
-0.011548 8.256481 -0.483270 180.000000 -0.000011 180.000000 0.635477 0.117154 -1.001710 0.010501 -0.018856 -3.652181 -3.889402 1.029010 7.756594 -0.100213 1.945872 16.940138 -13.626155 -6.983528 -0.029162 -65.488914 -7.780435 28.705700 0.276474 -45.122120 -0.672783 -6.051433 -7.076901 29.101715 -0.000003 0.000003 -0.000010 0.000000 0.000001 0.000004 0.000002 -0.000000 -0.000002 0.000005 -0.000007 -0.000006 -0.000002 0.000001 0.000002 0.000002 0.000001 -0.000002 0.000009 -0.000007 -0.000004 -0.000003 0.000001 -0.000003 0.000000 0.000002 0.000004 0.000010 -0.000005 -0.000006 0.000005 -0.000003 0.000001 -0.000003 0.000003 0.000001 0.000003 -0.000006 0.000001 0.000007 0.000001 -0.000002 -0.000005 0.000001 0.000001 13.468317 8.180591 -0.024082 69.271751 13.745941 23.722309 -0.176883 37.922710 -0.522157 19.746170 10.977557 38.035934 0.000002 0.000015 -0.000003 0.000002 0.000003 -0.000003 0.000000 -0.000000 0.000000 -0.000015 0.000009 -0.000003 0.000002 0.000001 0.000000 0.000005 -0.000001 0.000002 0.000003 0.000013 -0.000002 0.000003 -0.000003 0.000002 -0.000007 0.000001 0.000002 -0.000005 0.000017 -0.000002 0.000000 0.000001 0.000003 0.000002 0.000003 -0.000001 0.000002 0.000020 -0.000001 0.000003 0.000003 -0.000002 0.000000 -0.000006 -0.000001 -0.655022 3.656697 -3.844224 0.037142 0.309002 13.705544 -17.304878 5.835455 -15.022719 -0.242884 -2.164888 -7.227931 0.674307 -3.229205 -3.771359 -0.036451 -0.306210 13.579236 10.718564 -3.744780 -14.700853 0.152038 1.222485 -6.540777
-0.011548 8.256481 -0.483270 180.000000 -0.000011 180.000000 0.636003 0.095296 -0.998094 0.014487 -0.015764 -3.659480 -3.886304 1.036332 7.790376 -0.101212 1.965272 17.001247 -13.626038 -6.983454 -0.028479 -65.483047 -7.761117 28.696398 0.276798 -45.141598 -0.673240 -6.048124 -7.077454 29.096504 -0.000015 0.000005 0.000015 -0.000002 0.000000 0.000004 0.000000 0.000002 -0.000001 -0.000007 0.000005 0.000007 0.000005 -0.000003 0.000001 -0.000005 -0.000002 -0.000001 -0.000009 0.000000 0.000005 -0.000003 0.000004 0.000002 -0.000002 -0.000003 0.000002 0.000000 0.000009 0.000010 0.000000 -0.000004 0.000001 -0.000002 0.000000 -0.000001 -0.000009 0.000000 0.000005 0.000010 0.000006 0.000005 -0.000003 -0.000004 -0.000004 13.469082 8.178081 -0.024748 69.283058 13.750144 23.727667 -0.176788 37.914833 -0.522006 19.746181 10.975841 38.033596 0.000009 0.000024 -0.000003 0.000003 -0.000003 0.000003 0.000000 -0.000005 -0.000001 0.004617 0.000160 -0.000210 -0.000003 0.000001 -0.000004 0.000000 0.000001 -0.000005 0.004353 0.000133 0.000146 0.000005 0.000004 -0.000002 0.000005 -0.000000 0.000003 -0.000007 0.000013 0.000003 0.000007 0.000004 0.000002 0.000007 0.000002 -0.000002 0.000003 0.000014 0.000006 -0.000002 0.000001 0.000001 0.000002 0.000002 0.000000 -0.655035 3.655286 -3.847038 0.037171 0.309123 13.710972 -17.303991 5.835376 -15.025495 -0.242871 -2.164085 -7.225859 0.674380 -3.227847 -3.771331 -0.036451 -0.306210 13.579234 10.722271 -3.747982 -14.700328 0.152088 1.223210 -6.542640
